<svg width="160" height="128" viewBox="0 0 160 128" fill="none" xmlns="http://www.w3.org/2000/svg">
<circle cx="33.2754" cy="94.3823" r="32" stroke="#E12E55" stroke-width="2"/>
<path d="M18.75 81.5649L18.0072 82.2344L18.75 83.0584L19.4928 82.2344L18.75 81.5649ZM9.79982 88.5047L8.87295 88.8801H8.87295L9.79982 88.5047ZM27.7002 88.5047L26.7733 88.1293L27.7002 88.5047ZM18.75 97.0012L18.592 97.9886L18.75 98.0139L18.908 97.9886L18.75 97.0012ZM48.3906 81.5649L47.6479 82.2344L48.3906 83.0584L49.1334 82.2344L48.3906 81.5649ZM39.4404 88.5047L40.3673 88.1293L39.4404 88.5047ZM57.3408 88.5047L56.414 88.1293L57.3408 88.5047ZM48.3906 97.0012L48.2326 97.9886L48.3906 98.0139L48.5486 97.9886L48.3906 97.0012ZM19.4928 80.8953C17.1038 78.245 13.5181 77.863 10.9681 79.419C9.68669 80.2009 8.69128 81.4608 8.26365 83.1066C7.83745 84.7469 7.99094 86.7025 8.87295 88.8801L10.7267 88.1293C9.96951 86.2599 9.90334 84.7489 10.1994 83.6095C10.494 82.4757 11.1627 81.6431 12.0098 81.1262C13.7168 80.0846 16.2453 80.2797 18.0072 82.2344L19.4928 80.8953ZM28.6271 88.8801C29.5091 86.7025 29.6626 84.7469 29.2364 83.1066C28.8087 81.4608 27.8133 80.2009 26.532 79.419C23.982 77.863 20.3962 78.245 18.0072 80.8953L19.4928 82.2344C21.2547 80.2797 23.7832 80.0846 25.4902 81.1262C26.3373 81.6431 27.006 82.4757 27.3006 83.6095C27.5967 84.7489 27.5305 86.2599 26.7733 88.1293L28.6271 88.8801ZM18.908 97.9886C19.4813 97.8969 20.2322 97.5897 21.0175 97.1637C21.8274 96.7244 22.753 96.1154 23.6878 95.3514C25.5503 93.829 27.5085 91.6418 28.6271 88.8801L26.7733 88.1293C25.8166 90.4915 24.1104 92.4228 22.4221 93.8029C21.5814 94.49 20.7599 95.0282 20.0639 95.4057C19.3433 95.7966 18.8294 95.9758 18.592 96.0138L18.908 97.9886ZM8.87295 88.8801C9.9915 91.6418 11.9497 93.829 13.8122 95.3514C14.747 96.1154 15.6726 96.7244 16.4825 97.1637C17.2678 97.5897 18.0187 97.8969 18.592 97.9886L18.908 96.0138C18.6706 95.9758 18.1567 95.7966 17.4361 95.4057C16.7401 95.0282 15.9186 94.49 15.078 93.8029C13.3896 92.4228 11.6834 90.4915 10.7267 88.1293L8.87295 88.8801ZM49.1334 80.8953C46.7445 78.245 43.1587 77.863 40.6087 79.419C39.3273 80.2009 38.3319 81.4608 37.9043 83.1066C37.4781 84.7469 37.6316 86.7025 38.5136 88.8801L40.3673 88.1293C39.6101 86.2599 39.544 84.7489 39.84 83.6095C40.1346 82.4757 40.8034 81.6431 41.6505 81.1262C43.3574 80.0846 45.8859 80.2797 47.6479 82.2344L49.1334 80.8953ZM58.2677 88.8801C59.1497 86.7025 59.3032 84.7469 58.877 83.1066C58.4494 81.4608 57.454 80.2009 56.1726 79.419C53.6226 77.863 50.0368 78.245 47.6479 80.8953L49.1334 82.2344C50.8953 80.2797 53.4238 80.0846 55.1308 81.1262C55.9779 81.6431 56.6467 82.4757 56.9413 83.6095C57.2373 84.7489 57.1711 86.2599 56.414 88.1293L58.2677 88.8801ZM48.5486 97.9886C49.1219 97.8969 49.8728 97.5897 50.6581 97.1637C51.468 96.7244 52.3936 96.1154 53.3284 95.3514C55.191 93.829 57.1491 91.6418 58.2677 88.8801L56.414 88.1293C55.4573 90.4915 53.7511 92.4228 52.0627 93.8029C51.222 94.49 50.4005 95.0282 49.7045 95.4057C48.9839 95.7966 48.4701 95.9758 48.2326 96.0138L48.5486 97.9886ZM38.5136 88.8801C39.6321 91.6418 41.5903 93.829 43.4529 95.3514C44.3876 96.1154 45.3133 96.7244 46.1232 97.1637C46.9085 97.5897 47.6593 97.8969 48.2326 97.9886L48.5486 96.0138C48.3112 95.9758 47.7974 95.7966 47.0767 95.4057C46.3807 95.0282 45.5593 94.49 44.7186 93.8029C43.0302 92.4228 41.324 90.4915 40.3673 88.1293L38.5136 88.8801Z" fill="#E12E55"/>
<mask id="path-3-inside-1_74_821" fill="white">
<path fill-rule="evenodd" clip-rule="evenodd" d="M17.7491 103.47C18.7615 111.068 25.2677 116.93 33.143 116.93C41.0182 116.93 47.5244 111.068 48.5368 103.47H17.7491Z"/>
</mask>
<path d="M17.7491 103.47V101.47H15.465L15.7667 103.734L17.7491 103.47ZM48.5368 103.47L50.5193 103.734L50.8209 101.47H48.5368V103.47ZM33.143 114.93C26.2835 114.93 20.6134 109.824 19.7316 103.206L15.7667 103.734C16.9097 112.313 24.252 118.93 33.143 118.93V114.93ZM46.5543 103.206C45.6726 109.824 40.0024 114.93 33.143 114.93V118.93C42.034 118.93 49.3762 112.313 50.5193 103.734L46.5543 103.206ZM48.5368 101.47H17.7491V105.47H48.5368V101.47Z" fill="#E12E55" mask="url(#path-3-inside-1_74_821)"/>
<mask id="path-5-inside-2_74_821" fill="white">
<path fill-rule="evenodd" clip-rule="evenodd" d="M38.9402 115.812C38.0658 111.631 34.3592 108.492 29.9194 108.492C26.7537 108.492 23.9608 110.088 22.3015 112.519C25.1002 115.248 28.9252 116.93 33.143 116.93C35.1923 116.93 37.149 116.533 38.9402 115.812Z"/>
</mask>
<path d="M38.9402 115.812L39.6872 117.667L41.2408 117.041L40.8979 115.402L38.9402 115.812ZM22.3015 112.519L20.6495 111.392L19.7029 112.779L20.9052 113.951L22.3015 112.519ZM29.9194 110.492C33.3934 110.492 36.2981 112.949 36.9826 116.221L40.8979 115.402C39.8335 110.314 35.3251 106.492 29.9194 106.492V110.492ZM23.9535 113.647C25.2561 111.738 27.4425 110.492 29.9194 110.492V106.492C26.0649 106.492 22.6655 108.438 20.6495 111.392L23.9535 113.647ZM20.9052 113.951C24.0623 117.03 28.3828 118.93 33.143 118.93V114.93C29.4677 114.93 26.138 113.467 23.6977 111.087L20.9052 113.951ZM33.143 118.93C35.4526 118.93 37.6625 118.482 39.6872 117.667L38.1933 113.956C36.6355 114.583 34.9321 114.93 33.143 114.93V118.93Z" fill="#E12E55" mask="url(#path-5-inside-2_74_821)"/>
<circle cx="132.358" cy="94.3821" r="26.3662" stroke="#E12E55" stroke-width="2"/>
<mask id="path-8-inside-3_74_821" fill="white">
<path fill-rule="evenodd" clip-rule="evenodd" d="M115.366 98.3193C116.476 106.652 123.611 113.08 132.248 113.08C140.884 113.08 148.019 106.652 149.129 98.3193H115.366Z"/>
</mask>
<path d="M115.366 98.3193V96.3193H113.082L113.383 98.5834L115.366 98.3193ZM149.129 98.3193L151.112 98.5834L151.413 96.3193H149.129V98.3193ZM132.248 111.08C124.627 111.08 118.328 105.407 117.348 98.0551L113.383 98.5834C114.624 107.897 122.595 115.08 132.248 115.08V111.08ZM147.147 98.0551C146.167 105.407 139.868 111.08 132.248 111.08V115.08C141.9 115.08 149.871 107.897 151.112 98.5834L147.147 98.0551ZM149.129 96.3193H115.366V100.319H149.129V96.3193Z" fill="#E12E55" mask="url(#path-8-inside-3_74_821)"/>
<mask id="path-10-inside-4_74_821" fill="white">
<path fill-rule="evenodd" clip-rule="evenodd" d="M138.605 111.854C137.646 107.27 133.581 103.827 128.713 103.827C125.241 103.827 122.178 105.577 120.358 108.244C123.427 111.236 127.622 113.08 132.248 113.08C134.495 113.08 136.641 112.645 138.605 111.854Z"/>
</mask>
<path d="M138.605 111.854L139.352 113.709L140.906 113.084L140.563 111.444L138.605 111.854ZM120.358 108.244L118.706 107.116L117.76 108.503L118.962 109.676L120.358 108.244ZM128.713 105.827C132.616 105.827 135.879 108.587 136.648 112.263L140.563 111.444C139.414 105.952 134.547 101.827 128.713 101.827V105.827ZM122.01 109.371C123.473 107.227 125.93 105.827 128.713 105.827V101.827C124.552 101.827 120.883 103.927 118.706 107.116L122.01 109.371ZM118.962 109.676C122.39 113.018 127.08 115.08 132.248 115.08V111.08C128.165 111.08 124.465 109.455 121.755 106.812L118.962 109.676ZM132.248 115.08C134.755 115.08 137.154 114.594 139.352 113.709L137.858 109.999C136.127 110.696 134.235 111.08 132.248 111.08V115.08Z" fill="#E12E55" mask="url(#path-10-inside-4_74_821)"/>
<path d="M143.523 89.4064C143.523 90.4849 143.248 91.4139 142.855 92.0413C142.454 92.6827 142.027 92.8828 141.723 92.8828C141.418 92.8828 140.991 92.6827 140.59 92.0413C140.197 91.4139 139.922 90.4849 139.922 89.4064C139.922 88.3279 140.197 87.3989 140.59 86.7715C140.991 86.1301 141.418 85.93 141.723 85.93C142.027 85.93 142.454 86.1301 142.855 86.7715C143.248 87.3989 143.523 88.3279 143.523 89.4064Z" stroke="#E12E55" stroke-width="2"/>
<path d="M124.796 89.4064C124.796 90.4849 124.52 91.4139 124.127 92.0413C123.726 92.6827 123.3 92.8828 122.995 92.8828C122.69 92.8828 122.264 92.6827 121.862 92.0413C121.47 91.4139 121.194 90.4849 121.194 89.4064C121.194 88.3279 121.47 87.3989 121.862 86.7715C122.264 86.1301 122.69 85.93 122.995 85.93C123.3 85.93 123.726 86.1301 124.127 86.7715C124.52 87.3989 124.796 88.3279 124.796 89.4064Z" stroke="#E12E55" stroke-width="2"/>
<circle cx="84.569" cy="47.191" r="46.1911" fill="white" stroke="#E12E55" stroke-width="2"/>
<circle cx="50.2744" cy="52.3871" r="6.96585" stroke="#E12E55" stroke-width="2"/>
<circle cx="118.863" cy="52.3871" r="6.96585" stroke="#E12E55" stroke-width="2"/>
<path d="M57.4228 39.9425C61.2664 33.8232 68.484 34.2939 71.0732 39.9425" stroke="#E12E55" stroke-width="2" stroke-linecap="round"/>
<path d="M98.0663 39.9425C101.91 33.8232 109.128 34.2939 111.717 39.9425" stroke="#E12E55" stroke-width="2" stroke-linecap="round"/>
<path d="M64.1446 54.3776C73.7358 73.5985 96.0163 73.8338 104.992 54.3776" stroke="#E12E55" stroke-width="2" stroke-linecap="round" stroke-linejoin="round"/>
</svg>
