<svg width="158" height="104" viewBox="0 0 158 104" fill="none" xmlns="http://www.w3.org/2000/svg">
<rect x="1" y="1" width="156" height="102" rx="19" stroke="#E12E55" stroke-width="2"/>
<path d="M3.41332 80.6739C10.6589 72.1752 19.1101 62.6018 25.2813 55.6709C29.2363 51.229 31.2138 49.0081 33.6789 49.1933C36.1439 49.3785 37.7729 51.8785 41.0308 56.8786C44.966 62.9181 50.0348 70.698 54.8904 78.1522M3.41332 80.6739C10.7025 75 15.7273 73.1087 25.7769 76.2609C35.8264 79.413 42.5494 90.7609 54.8904 78.1522M3.41332 80.6739C2.76506 81.4343 2.12646 82.1861 1.5 82.9266M54.8904 78.1522C56.1354 80.0635 57.3664 81.9534 58.5606 83.787C62.0175 89.0946 63.7459 91.7484 66.4227 92.1427C69.0994 92.537 71.5194 90.4944 76.3594 86.4093L78.5372 84.5711M111.775 92.6522L101.373 80.7378C97.709 76.5411 95.877 74.4427 93.4281 74.2562C90.9792 74.0696 88.8506 75.8663 84.5932 79.4596L78.5372 84.5711M111.775 92.6522C106.802 86.956 99.8926 84.5711 92.3554 88.2391C84.8182 91.9071 79.1653 86.6344 78.5372 84.5711M111.775 92.6522L120.809 103" stroke="#E12E55" stroke-width="2" stroke-linecap="round"/>
<rect x="56" y="37" width="46" height="30" rx="6" fill="white" stroke="#E12E55" stroke-width="2"/>
<path d="M82.8635 51.097C84.7098 51.6939 84.7098 54.3061 82.8635 54.903L76.8653 56.8423C75.5736 57.26 74.25 56.2968 74.25 54.9393V51.0607C74.25 49.7032 75.5736 48.74 76.8653 49.1577L82.8635 51.097Z" stroke="#E12E55" stroke-width="2"/>
<circle cx="131" cy="23" r="12" stroke="#E12E55" stroke-width="2"/>
</svg>
