<svg width="180" height="117" viewBox="0 0 180 117" fill="none" xmlns="http://www.w3.org/2000/svg">
<path d="M24.5781 48.1567C29.1301 52.8602 29.7368 55.9838 25.9065 62.7687M44.8356 75.3881C55.5829 70.9272 61.6173 71.2265 72.399 77.7127M112.582 11.959C121.666 14.828 126.76 15.9132 135.828 10.9627M155.421 20.2612C152.862 26.9718 152.201 30.675 156.418 36.8657" stroke="#E12E55" stroke-width="2" stroke-linecap="round"/>
<path d="M53.8022 33.493C39.3614 39.0537 23.8322 44.4154 5.06683 50.4967C3.45339 51.0196 3.17664 53.1878 4.60962 54.0951L56.2783 86.8084C56.8101 87.1451 57.4723 87.2108 58.0606 86.987C78.3213 79.2775 94.6887 72.4653 109.925 65.3039M53.8022 33.493C54.5993 34.0658 91.5497 54.9389 109.925 65.3039M53.8022 33.493C63.3618 29.812 72.4444 26.0437 81.6731 21.9216M109.925 65.3039C118.406 61.3177 126.537 57.2234 134.794 52.806M81.6731 21.9216C94.7754 16.0694 108.172 9.50421 123.647 1.46321C124.206 1.17243 124.872 1.16116 125.44 1.43485L175.685 25.6383C177.114 26.3265 177.211 28.3237 175.855 29.1456C160.684 38.341 147.588 45.9613 134.794 52.806M81.6731 21.9216L134.794 52.806" stroke="#E12E55" stroke-width="2" stroke-linecap="round"/>
<path d="M1 58.7948L57.1231 94.3284C107.943 75.0354 134.293 61.4395 179 34.2202" stroke="#E12E55" stroke-width="2" stroke-linecap="round"/>
<path d="M1 65.903L57.1231 101.437C107.943 82.1436 134.293 68.5478 179 41.3284" stroke="#E12E55" stroke-width="2" stroke-linecap="round"/>
<path d="M1 73.0112L57.1231 108.545C107.943 89.2518 134.293 75.656 179 48.4366" stroke="#E12E55" stroke-width="2" stroke-linecap="round"/>
<path d="M1 80.1194L57.1231 115.653C107.943 96.36 134.293 82.7642 179 55.5448" stroke="#E12E55" stroke-width="2" stroke-linecap="round"/>
</svg>
