<svg width="207" height="40" viewBox="0 0 207 40" fill="none" xmlns="http://www.w3.org/2000/svg">
<path d="M2.02539 17.916C2.02539 12.4187 4.98939 9.67 10.9174 9.67C13.9827 9.67 16.3767 10.088 18.0994 10.924C18.7074 11.2027 19.0874 11.4687 19.2394 11.722C19.4167 11.9753 19.5054 12.4187 19.5054 13.052V30.304C19.5054 32.9387 18.7961 35.0033 17.3774 36.498C15.9841 37.9927 13.8054 38.74 10.8414 38.74C6.91472 38.74 4.19139 37.562 2.67139 35.206C2.06339 34.218 2.26606 33.4707 3.27939 32.964L5.40739 31.862C5.93939 31.5833 6.35739 31.482 6.66139 31.558C6.96539 31.634 7.28206 31.9 7.61139 32.356C8.29539 33.3187 9.33406 33.8 10.7274 33.8C12.7541 33.8 13.7674 32.774 13.7674 30.722V29.088C12.5767 29.3413 11.3987 29.468 10.2334 29.468C4.76139 29.468 2.02539 26.846 2.02539 21.602V17.916ZM13.6154 15.066C12.8047 14.8887 12.0067 14.8 11.2214 14.8C8.91606 14.8 7.76339 15.8387 7.76339 17.916V21.564C7.76339 22.4507 8.04206 23.1347 8.59939 23.616C9.15672 24.0973 9.94206 24.338 10.9554 24.338C11.8927 24.338 12.8301 24.2493 13.7674 24.072V15.294C13.7674 15.1673 13.7167 15.0913 13.6154 15.066Z" fill="white"/>
<path d="M23.0753 13.622C24.4686 10.9873 27.1793 9.67 31.2073 9.67C36.8566 9.67 39.6813 12.3427 39.6813 17.688V27.34C39.6813 27.9987 39.58 28.48 39.3773 28.784C39.2 29.0627 38.8326 29.316 38.2753 29.544C36.7553 30.228 34.3613 30.57 31.0933 30.57C27.8 30.57 25.52 30.0633 24.2533 29.05C23.012 28.0367 22.3913 26.4533 22.3913 24.3C22.3913 21.9693 23.0626 20.348 24.4053 19.436C25.7733 18.524 28.0533 18.068 31.2453 18.068C32.2333 18.068 33.1326 18.0933 33.9433 18.144V17.308C33.9433 15.4333 32.968 14.496 31.0173 14.496C29.624 14.496 28.5726 14.9647 27.8633 15.902C27.534 16.3327 27.2553 16.5987 27.0273 16.7C26.8246 16.776 26.4573 16.7127 25.9253 16.51L23.8353 15.636C22.8726 15.2307 22.6193 14.5593 23.0753 13.622ZM33.9433 22.514C33.7153 22.514 33.2213 22.5013 32.4613 22.476C31.7013 22.4507 31.1313 22.438 30.7513 22.438C29.738 22.438 29.0413 22.6027 28.6613 22.932C28.3066 23.236 28.1293 23.6793 28.1293 24.262C28.1293 24.87 28.3066 25.3387 28.6613 25.668C29.016 25.972 29.6873 26.124 30.6753 26.124C32.018 26.124 33.0186 26.0733 33.6773 25.972C33.8546 25.9213 33.9433 25.8327 33.9433 25.706V22.514Z" fill="white"/>
<path d="M49.2766 5.68C49.7833 5.68 50.1379 5.78134 50.3406 5.984C50.5433 6.18667 50.6446 6.554 50.6446 7.086V10.24H54.1786C54.6853 10.24 55.0399 10.3413 55.2426 10.544C55.4453 10.7467 55.5466 11.114 55.5466 11.646V13.926C55.5466 14.458 55.4453 14.8253 55.2426 15.028C55.0399 15.2307 54.6853 15.332 54.1786 15.332H50.6446V21.716C50.6446 23.1347 50.8979 24.0847 51.4046 24.566C51.9113 25.022 52.8233 25.25 54.1406 25.25C54.6726 25.25 55.0399 25.3513 55.2426 25.554C55.4453 25.7567 55.5466 26.1367 55.5466 26.694V29.088C55.5466 29.6453 55.4453 30.0127 55.2426 30.19C55.0399 30.3927 54.6726 30.5067 54.1406 30.532C50.8219 30.6333 48.4533 30.0507 47.0346 28.784C45.6159 27.5173 44.9066 25.2373 44.9066 21.944V15.332H42.8926C42.3606 15.332 41.9933 15.2307 41.7906 15.028C41.5879 14.8253 41.4866 14.458 41.4866 13.926V11.646C41.4866 11.114 41.5879 10.7467 41.7906 10.544C41.9933 10.3413 42.3606 10.24 42.8926 10.24H44.9066V7.086C44.9066 6.554 45.0079 6.18667 45.2106 5.984C45.4386 5.78134 45.8059 5.68 46.3126 5.68H49.2766Z" fill="white"/>
<path d="M57.6886 18.106C57.6886 15.37 58.4739 13.28 60.0446 11.836C61.6152 10.392 63.8699 9.67 66.8086 9.67C69.8232 9.67 72.1032 10.43 73.6486 11.95C75.1939 13.4447 75.9666 15.3573 75.9666 17.688V20.006C75.9666 21.2727 75.3079 21.906 73.9906 21.906H63.4266V22.856C63.4266 24.8573 64.5666 25.858 66.8466 25.858C68.4932 25.858 69.6966 25.3513 70.4566 24.338C70.7859 23.882 71.0899 23.616 71.3686 23.54C71.6726 23.464 72.1032 23.5653 72.6606 23.844L74.5226 24.794C75.5106 25.3007 75.7132 26.048 75.1306 27.036C73.6612 29.392 70.8746 30.57 66.7706 30.57C63.6546 30.57 61.3619 29.81 59.8926 28.29C58.4232 26.7447 57.6886 24.6927 57.6886 22.134V18.106ZM70.1906 17.156C70.1906 15.2053 69.0632 14.23 66.8086 14.23C64.5539 14.23 63.4266 15.2053 63.4266 17.156V17.764H70.1906V17.156Z" fill="white"/>
<path d="M82.0834 23.844C83.1727 23.844 83.92 24.0593 84.3254 24.49C84.756 24.8953 84.9714 25.6427 84.9714 26.732V27.454C84.9714 28.5433 84.756 29.2907 84.3254 29.696C83.92 30.1013 83.1727 30.304 82.0834 30.304H81.4374C80.348 30.304 79.6007 30.1013 79.1954 29.696C78.79 29.2907 78.5874 28.5433 78.5874 27.454V26.732C78.5874 25.6427 78.79 24.8953 79.1954 24.49C79.6007 24.0593 80.348 23.844 81.4374 23.844H82.0834Z" fill="white"/>
<path d="M101.957 10.734C103.807 10.0247 105.935 9.67 108.341 9.67C113.56 9.67 116.169 12.292 116.169 17.536V28.594C116.169 29.126 116.068 29.4933 115.865 29.696C115.663 29.8987 115.295 30 114.763 30H111.837C111.305 30 110.938 29.8987 110.735 29.696C110.533 29.4933 110.431 29.126 110.431 28.594V17.688C110.431 15.8133 109.469 14.876 107.543 14.876C106.682 14.876 105.808 15.0027 104.921 15.256C105.073 15.94 105.149 16.7127 105.149 17.574V28.594C105.149 29.126 105.048 29.4933 104.845 29.696C104.643 29.8987 104.275 30 103.743 30H100.817C100.285 30 99.918 29.8987 99.7154 29.696C99.5127 29.4933 99.4114 29.126 99.4114 28.594V17.688C99.4114 15.8133 98.4487 14.876 96.5234 14.876C95.8394 14.876 95.092 14.9773 94.2814 15.18C94.18 15.18 94.1294 15.256 94.1294 15.408V28.594C94.1294 29.126 94.028 29.4933 93.8254 29.696C93.6227 29.8987 93.2554 30 92.7234 30H89.7974C89.2654 30 88.898 29.8987 88.6954 29.696C88.4927 29.4933 88.3914 29.126 88.3914 28.594V13.242C88.3914 12.6087 88.4927 12.1527 88.6954 11.874C88.898 11.57 89.3034 11.2913 89.9114 11.038C92.1154 10.126 94.5854 9.67 97.3214 9.67C99.196 9.67 100.741 10.0247 101.957 10.734Z" fill="white"/>
<path d="M119.634 13.622C121.027 10.9873 123.738 9.67 127.766 9.67C133.415 9.67 136.24 12.3427 136.24 17.688V27.34C136.24 27.9987 136.139 28.48 135.936 28.784C135.759 29.0627 135.391 29.316 134.834 29.544C133.314 30.228 130.92 30.57 127.652 30.57C124.359 30.57 122.079 30.0633 120.812 29.05C119.571 28.0367 118.95 26.4533 118.95 24.3C118.95 21.9693 119.621 20.348 120.964 19.436C122.332 18.524 124.612 18.068 127.804 18.068C128.792 18.068 129.691 18.0933 130.502 18.144V17.308C130.502 15.4333 129.527 14.496 127.576 14.496C126.183 14.496 125.131 14.9647 124.422 15.902C124.093 16.3327 123.814 16.5987 123.586 16.7C123.383 16.776 123.016 16.7127 122.484 16.51L120.394 15.636C119.431 15.2307 119.178 14.5593 119.634 13.622ZM130.502 22.514C130.274 22.514 129.78 22.5013 129.02 22.476C128.26 22.4507 127.69 22.438 127.31 22.438C126.297 22.438 125.6 22.6027 125.22 22.932C124.865 23.236 124.688 23.6793 124.688 24.262C124.688 24.87 124.865 25.3387 125.22 25.668C125.575 25.972 126.246 26.124 127.234 26.124C128.577 26.124 129.577 26.0733 130.236 25.972C130.413 25.9213 130.502 25.8327 130.502 25.706V22.514Z" fill="white"/>
<path d="M148.53 9.67H149.784C150.29 9.67 150.645 9.77134 150.848 9.974C151.076 10.1767 151.19 10.544 151.19 11.076V13.432C151.19 13.9387 151.076 14.2933 150.848 14.496C150.645 14.6987 150.29 14.8 149.784 14.8H148.378C147.364 14.8 146.465 14.8887 145.68 15.066C145.528 15.0913 145.452 15.18 145.452 15.332V28.594C145.452 29.126 145.35 29.4933 145.148 29.696C144.945 29.8987 144.59 30 144.084 30H141.12C140.588 30 140.22 29.8987 140.018 29.696C139.815 29.4933 139.714 29.126 139.714 28.594V13.052C139.714 12.4187 139.815 11.9627 140.018 11.684C140.22 11.38 140.626 11.1013 141.234 10.848C142.956 10.164 145.388 9.77134 148.53 9.67Z" fill="white"/>
<path d="M171.003 28.29C171.332 28.898 171.421 29.3413 171.269 29.62C171.142 29.8733 170.737 30 170.053 30H167.431C166.62 30 166.063 29.924 165.759 29.772C165.455 29.62 165.176 29.2653 164.923 28.708L162.909 24.034C162.478 23.0207 161.667 22.514 160.477 22.514H159.147V28.556C159.147 29.1133 159.045 29.4933 158.843 29.696C158.64 29.8987 158.26 30 157.703 30H154.853C154.295 30 153.915 29.8987 153.713 29.696C153.51 29.4933 153.409 29.1133 153.409 28.556V3.324C153.409 2.76667 153.51 2.38667 153.713 2.184C153.915 1.98134 154.295 1.88 154.853 1.88H157.703C158.26 1.88 158.64 1.98134 158.843 2.184C159.045 2.38667 159.147 2.76667 159.147 3.324V17.422H159.945H160.173L164.467 11.38C164.796 10.8733 165.125 10.5567 165.455 10.43C165.784 10.3033 166.354 10.24 167.165 10.24H169.711C171.129 10.24 171.446 10.7973 170.661 11.912L165.569 18.866C166.329 19.398 167.038 20.31 167.697 21.602L171.003 28.29Z" fill="white"/>
<path d="M172.691 18.106C172.691 15.37 173.476 13.28 175.047 11.836C176.617 10.392 178.872 9.67 181.811 9.67C184.825 9.67 187.105 10.43 188.651 11.95C190.196 13.4447 190.969 15.3573 190.969 17.688V20.006C190.969 21.2727 190.31 21.906 188.993 21.906H178.429V22.856C178.429 24.8573 179.569 25.858 181.849 25.858C183.495 25.858 184.699 25.3513 185.459 24.338C185.788 23.882 186.092 23.616 186.371 23.54C186.675 23.464 187.105 23.5653 187.663 23.844L189.525 24.794C190.513 25.3007 190.715 26.048 190.133 27.036C188.663 29.392 185.877 30.57 181.773 30.57C178.657 30.57 176.364 29.81 174.895 28.29C173.425 26.7447 172.691 24.6927 172.691 22.134V18.106ZM185.193 17.156C185.193 15.2053 184.065 14.23 181.811 14.23C179.556 14.23 178.429 15.2053 178.429 17.156V17.764H185.193V17.156Z" fill="white"/>
<path d="M200.163 5.68C200.67 5.68 201.025 5.78134 201.227 5.984C201.43 6.18667 201.531 6.554 201.531 7.086V10.24H205.065C205.572 10.24 205.927 10.3413 206.129 10.544C206.332 10.7467 206.433 11.114 206.433 11.646V13.926C206.433 14.458 206.332 14.8253 206.129 15.028C205.927 15.2307 205.572 15.332 205.065 15.332H201.531V21.716C201.531 23.1347 201.785 24.0847 202.291 24.566C202.798 25.022 203.71 25.25 205.027 25.25C205.559 25.25 205.927 25.3513 206.129 25.554C206.332 25.7567 206.433 26.1367 206.433 26.694V29.088C206.433 29.6453 206.332 30.0127 206.129 30.19C205.927 30.3927 205.559 30.5067 205.027 30.532C201.709 30.6333 199.34 30.0507 197.921 28.784C196.503 27.5173 195.793 25.2373 195.793 21.944V15.332H193.779C193.247 15.332 192.88 15.2307 192.677 15.028C192.475 14.8253 192.373 14.458 192.373 13.926V11.646C192.373 11.114 192.475 10.7467 192.677 10.544C192.88 10.3413 193.247 10.24 193.779 10.24H195.793V7.086C195.793 6.554 195.895 6.18667 196.097 5.984C196.325 5.78134 196.693 5.68 197.199 5.68H200.163Z" fill="white"/>
</svg>
