<svg width="207" height="40" viewBox="0 0 207 40" fill="none" xmlns="http://www.w3.org/2000/svg">
<path d="M1.7207 17.916C1.7207 12.4187 4.6847 9.67 10.6127 9.67C13.678 9.67 16.072 10.088 17.7947 10.924C18.4027 11.2027 18.7827 11.4687 18.9347 11.722C19.112 11.9753 19.2007 12.4187 19.2007 13.052V30.304C19.2007 32.9387 18.4914 35.0033 17.0727 36.498C15.6794 37.9927 13.5007 38.74 10.5367 38.74C6.61004 38.74 3.8867 37.562 2.3667 35.206C1.7587 34.218 1.96137 33.4707 2.9747 32.964L5.1027 31.862C5.6347 31.5833 6.0527 31.482 6.3567 31.558C6.6607 31.634 6.97737 31.9 7.3067 32.356C7.9907 33.3187 9.02937 33.8 10.4227 33.8C12.4494 33.8 13.4627 32.774 13.4627 30.722V29.088C12.272 29.3413 11.094 29.468 9.9287 29.468C4.4567 29.468 1.7207 26.846 1.7207 21.602V17.916ZM13.3107 15.066C12.5 14.8887 11.702 14.8 10.9167 14.8C8.61137 14.8 7.4587 15.8387 7.4587 17.916V21.564C7.4587 22.4507 7.73737 23.1347 8.2947 23.616C8.85204 24.0973 9.63737 24.338 10.6507 24.338C11.588 24.338 12.5254 24.2493 13.4627 24.072V15.294C13.4627 15.1673 13.412 15.0913 13.3107 15.066Z" fill="#333333"/>
<path d="M22.7706 13.622C24.164 10.9873 26.8746 9.67 30.9026 9.67C36.552 9.67 39.3766 12.3427 39.3766 17.688V27.34C39.3766 27.9987 39.2753 28.48 39.0726 28.784C38.8953 29.0627 38.528 29.316 37.9706 29.544C36.4506 30.228 34.0566 30.57 30.7886 30.57C27.4953 30.57 25.2153 30.0633 23.9486 29.05C22.7073 28.0367 22.0866 26.4533 22.0866 24.3C22.0866 21.9693 22.758 20.348 24.1006 19.436C25.4686 18.524 27.7486 18.068 30.9406 18.068C31.9286 18.068 32.828 18.0933 33.6386 18.144V17.308C33.6386 15.4333 32.6633 14.496 30.7126 14.496C29.3193 14.496 28.268 14.9647 27.5586 15.902C27.2293 16.3327 26.9506 16.5987 26.7226 16.7C26.52 16.776 26.1526 16.7127 25.6206 16.51L23.5306 15.636C22.568 15.2307 22.3146 14.5593 22.7706 13.622ZM33.6386 22.514C33.4106 22.514 32.9166 22.5013 32.1566 22.476C31.3966 22.4507 30.8266 22.438 30.4466 22.438C29.4333 22.438 28.7366 22.6027 28.3566 22.932C28.002 23.236 27.8246 23.6793 27.8246 24.262C27.8246 24.87 28.002 25.3387 28.3566 25.668C28.7113 25.972 29.3826 26.124 30.3706 26.124C31.7133 26.124 32.714 26.0733 33.3726 25.972C33.55 25.9213 33.6386 25.8327 33.6386 25.706V22.514Z" fill="#333333"/>
<path d="M48.9719 5.68C49.4786 5.68 49.8333 5.78134 50.0359 5.984C50.2386 6.18667 50.3399 6.554 50.3399 7.086V10.24H53.8739C54.3806 10.24 54.7353 10.3413 54.9379 10.544C55.1406 10.7467 55.2419 11.114 55.2419 11.646V13.926C55.2419 14.458 55.1406 14.8253 54.9379 15.028C54.7353 15.2307 54.3806 15.332 53.8739 15.332H50.3399V21.716C50.3399 23.1347 50.5933 24.0847 51.0999 24.566C51.6066 25.022 52.5186 25.25 53.8359 25.25C54.3679 25.25 54.7353 25.3513 54.9379 25.554C55.1406 25.7567 55.2419 26.1367 55.2419 26.694V29.088C55.2419 29.6453 55.1406 30.0127 54.9379 30.19C54.7353 30.3927 54.3679 30.5067 53.8359 30.532C50.5173 30.6333 48.1486 30.0507 46.7299 28.784C45.3113 27.5173 44.6019 25.2373 44.6019 21.944V15.332H42.5879C42.0559 15.332 41.6886 15.2307 41.4859 15.028C41.2833 14.8253 41.1819 14.458 41.1819 13.926V11.646C41.1819 11.114 41.2833 10.7467 41.4859 10.544C41.6886 10.3413 42.0559 10.24 42.5879 10.24H44.6019V7.086C44.6019 6.554 44.7033 6.18667 44.9059 5.984C45.1339 5.78134 45.5013 5.68 46.0079 5.68H48.9719Z" fill="#333333"/>
<path d="M57.3839 18.106C57.3839 15.37 58.1692 13.28 59.7399 11.836C61.3105 10.392 63.5652 9.67 66.5039 9.67C69.5185 9.67 71.7985 10.43 73.3439 11.95C74.8892 13.4447 75.6619 15.3573 75.6619 17.688V20.006C75.6619 21.2727 75.0032 21.906 73.6859 21.906H63.1219V22.856C63.1219 24.8573 64.2619 25.858 66.5419 25.858C68.1885 25.858 69.3919 25.3513 70.1519 24.338C70.4812 23.882 70.7852 23.616 71.0639 23.54C71.3679 23.464 71.7985 23.5653 72.3559 23.844L74.2179 24.794C75.2059 25.3007 75.4085 26.048 74.8259 27.036C73.3565 29.392 70.5699 30.57 66.4659 30.57C63.3499 30.57 61.0572 29.81 59.5879 28.29C58.1185 26.7447 57.3839 24.6927 57.3839 22.134V18.106ZM69.8859 17.156C69.8859 15.2053 68.7585 14.23 66.5039 14.23C64.2492 14.23 63.1219 15.2053 63.1219 17.156V17.764H69.8859V17.156Z" fill="#333333"/>
<path d="M81.7787 23.844C82.868 23.844 83.6153 24.0593 84.0207 24.49C84.4513 24.8953 84.6667 25.6427 84.6667 26.732V27.454C84.6667 28.5433 84.4513 29.2907 84.0207 29.696C83.6153 30.1013 82.868 30.304 81.7787 30.304H81.1327C80.0434 30.304 79.296 30.1013 78.8907 29.696C78.4854 29.2907 78.2827 28.5433 78.2827 27.454V26.732C78.2827 25.6427 78.4854 24.8953 78.8907 24.49C79.296 24.0593 80.0434 23.844 81.1327 23.844H81.7787Z" fill="#333333"/>
<path d="M101.653 10.734C103.502 10.0247 105.63 9.67 108.037 9.67C113.255 9.67 115.865 12.292 115.865 17.536V28.594C115.865 29.126 115.763 29.4933 115.561 29.696C115.358 29.8987 114.991 30 114.459 30H111.533C111.001 30 110.633 29.8987 110.431 29.696C110.228 29.4933 110.127 29.126 110.127 28.594V17.688C110.127 15.8133 109.164 14.876 107.239 14.876C106.377 14.876 105.503 15.0027 104.617 15.256C104.769 15.94 104.845 16.7127 104.845 17.574V28.594C104.845 29.126 104.743 29.4933 104.541 29.696C104.338 29.8987 103.971 30 103.439 30H100.513C99.9807 30 99.6133 29.8987 99.4107 29.696C99.208 29.4933 99.1067 29.126 99.1067 28.594V17.688C99.1067 15.8133 98.144 14.876 96.2187 14.876C95.5347 14.876 94.7874 14.9773 93.9767 15.18C93.8754 15.18 93.8247 15.256 93.8247 15.408V28.594C93.8247 29.126 93.7234 29.4933 93.5207 29.696C93.318 29.8987 92.9507 30 92.4187 30H89.4927C88.9607 30 88.5934 29.8987 88.3907 29.696C88.188 29.4933 88.0867 29.126 88.0867 28.594V13.242C88.0867 12.6087 88.188 12.1527 88.3907 11.874C88.5934 11.57 88.9987 11.2913 89.6067 11.038C91.8107 10.126 94.2807 9.67 97.0167 9.67C98.8913 9.67 100.437 10.0247 101.653 10.734Z" fill="#333333"/>
<path d="M119.329 13.622C120.723 10.9873 123.433 9.67 127.461 9.67C133.111 9.67 135.935 12.3427 135.935 17.688V27.34C135.935 27.9987 135.834 28.48 135.631 28.784C135.454 29.0627 135.087 29.316 134.529 29.544C133.009 30.228 130.615 30.57 127.347 30.57C124.054 30.57 121.774 30.0633 120.507 29.05C119.266 28.0367 118.645 26.4533 118.645 24.3C118.645 21.9693 119.317 20.348 120.659 19.436C122.027 18.524 124.307 18.068 127.499 18.068C128.487 18.068 129.387 18.0933 130.197 18.144V17.308C130.197 15.4333 129.222 14.496 127.271 14.496C125.878 14.496 124.827 14.9647 124.117 15.902C123.788 16.3327 123.509 16.5987 123.281 16.7C123.079 16.776 122.711 16.7127 122.179 16.51L120.089 15.636C119.127 15.2307 118.873 14.5593 119.329 13.622ZM130.197 22.514C129.969 22.514 129.475 22.5013 128.715 22.476C127.955 22.4507 127.385 22.438 127.005 22.438C125.992 22.438 125.295 22.6027 124.915 22.932C124.561 23.236 124.383 23.6793 124.383 24.262C124.383 24.87 124.561 25.3387 124.915 25.668C125.27 25.972 125.941 26.124 126.929 26.124C128.272 26.124 129.273 26.0733 129.931 25.972C130.109 25.9213 130.197 25.8327 130.197 25.706V22.514Z" fill="#333333"/>
<path d="M148.225 9.67H149.479C149.986 9.67 150.34 9.77134 150.543 9.974C150.771 10.1767 150.885 10.544 150.885 11.076V13.432C150.885 13.9387 150.771 14.2933 150.543 14.496C150.34 14.6987 149.986 14.8 149.479 14.8H148.073C147.06 14.8 146.16 14.8887 145.375 15.066C145.223 15.0913 145.147 15.18 145.147 15.332V28.594C145.147 29.126 145.046 29.4933 144.843 29.696C144.64 29.8987 144.286 30 143.779 30H140.815C140.283 30 139.916 29.8987 139.713 29.696C139.51 29.4933 139.409 29.126 139.409 28.594V13.052C139.409 12.4187 139.51 11.9627 139.713 11.684C139.916 11.38 140.321 11.1013 140.929 10.848C142.652 10.164 145.084 9.77134 148.225 9.67Z" fill="#333333"/>
<path d="M170.698 28.29C171.027 28.898 171.116 29.3413 170.964 29.62C170.837 29.8733 170.432 30 169.748 30H167.126C166.315 30 165.758 29.924 165.454 29.772C165.15 29.62 164.871 29.2653 164.618 28.708L162.604 24.034C162.173 23.0207 161.363 22.514 160.172 22.514H158.842V28.556C158.842 29.1133 158.741 29.4933 158.538 29.696C158.335 29.8987 157.955 30 157.398 30H154.548C153.991 30 153.611 29.8987 153.408 29.696C153.205 29.4933 153.104 29.1133 153.104 28.556V3.324C153.104 2.76667 153.205 2.38667 153.408 2.184C153.611 1.98134 153.991 1.88 154.548 1.88H157.398C157.955 1.88 158.335 1.98134 158.538 2.184C158.741 2.38667 158.842 2.76667 158.842 3.324V17.422H159.64H159.868L164.162 11.38C164.491 10.8733 164.821 10.5567 165.15 10.43C165.479 10.3033 166.049 10.24 166.86 10.24H169.406C170.825 10.24 171.141 10.7973 170.356 11.912L165.264 18.866C166.024 19.398 166.733 20.31 167.392 21.602L170.698 28.29Z" fill="#333333"/>
<path d="M172.386 18.106C172.386 15.37 173.171 13.28 174.742 11.836C176.312 10.392 178.567 9.67 181.506 9.67C184.52 9.67 186.8 10.43 188.346 11.95C189.891 13.4447 190.664 15.3573 190.664 17.688V20.006C190.664 21.2727 190.005 21.906 188.688 21.906H178.124V22.856C178.124 24.8573 179.264 25.858 181.544 25.858C183.19 25.858 184.394 25.3513 185.154 24.338C185.483 23.882 185.787 23.616 186.066 23.54C186.37 23.464 186.801 23.5653 187.358 23.844L189.22 24.794C190.208 25.3007 190.411 26.048 189.828 27.036C188.359 29.392 185.572 30.57 181.468 30.57C178.352 30.57 176.059 29.81 174.59 28.29C173.12 26.7447 172.386 24.6927 172.386 22.134V18.106ZM184.888 17.156C184.888 15.2053 183.76 14.23 181.506 14.23C179.251 14.23 178.124 15.2053 178.124 17.156V17.764H184.888V17.156Z" fill="#333333"/>
<path d="M199.859 5.68C200.365 5.68 200.72 5.78134 200.923 5.984C201.125 6.18667 201.227 6.554 201.227 7.086V10.24H204.761C205.267 10.24 205.622 10.3413 205.825 10.544C206.027 10.7467 206.129 11.114 206.129 11.646V13.926C206.129 14.458 206.027 14.8253 205.825 15.028C205.622 15.2307 205.267 15.332 204.761 15.332H201.227V21.716C201.227 23.1347 201.48 24.0847 201.987 24.566C202.493 25.022 203.405 25.25 204.723 25.25C205.255 25.25 205.622 25.3513 205.825 25.554C206.027 25.7567 206.129 26.1367 206.129 26.694V29.088C206.129 29.6453 206.027 30.0127 205.825 30.19C205.622 30.3927 205.255 30.5067 204.723 30.532C201.404 30.6333 199.035 30.0507 197.617 28.784C196.198 27.5173 195.489 25.2373 195.489 21.944V15.332H193.475C192.943 15.332 192.575 15.2307 192.373 15.028C192.17 14.8253 192.069 14.458 192.069 13.926V11.646C192.069 11.114 192.17 10.7467 192.373 10.544C192.575 10.3413 192.943 10.24 193.475 10.24H195.489V7.086C195.489 6.554 195.59 6.18667 195.793 5.984C196.021 5.78134 196.388 5.68 196.895 5.68H199.859Z" fill="#333333"/>
</svg>
