<?xml version="1.0" encoding="utf-8"?><svg viewBox="0 0 40 40" xmlns="http://www.w3.org/2000/svg" xmlns:xlink="http://www.w3.org/1999/xlink"><style>:root>svg{display:none}:root>svg:target{display:block}</style><svg viewBox="0 0 24 24" id="cart"><path class="afsb-top" d="M9.4 20a1.4 1.4 0 11-2.8 0 1.4 1.4 0 012.8 0zm10 0a1.4 1.4 0 11-2.8 0 1.4 1.4 0 012.8 0z"/><path class="afsb-bottom" d="M2 2.4a.6.6 0 000 1.2V2.4zm2.5.6l.537-.268L4.87 2.4H4.5V3zM9 11.5l-.424.424.175.176H9v-.6zm11 5.1a.6.6 0 100-1.2v1.2zm.906-11.448l.511.315-.51-.315zm-3.613 5.872l-.511-.314.51.314zM2 3.6h2.5V2.4H2v1.2zm7 8.5h7.441v-1.2H9v1.2zm8.804-.761l3.613-5.872-1.022-.629-3.613 5.872 1.022.629zm-13.84-8.07l1 2 1.073-.537-1-2-1.074.536zM20.82 4.4H5.5v1.2h15.321V4.4zM7.618 16.6H20v-1.2H7.618v1.2zM4.963 5.268l3 6 1.074-.536-3-6-1.074.536zm3.113 6.156l.5.5.848-.848-.5-.5-.848.848zm-.816 3.397l1.777-3.553-1.074-.536-1.776 3.553 1.073.536zm.358.579a.4.4 0 01-.358-.579l-1.073-.537A1.6 1.6 0 007.618 16.6v-1.2zm13.8-9.933A.7.7 0 0020.82 4.4v1.2a.5.5 0 01-.426-.762l1.022.629zM16.44 12.1a1.6 1.6 0 001.363-.761l-1.022-.63a.4.4 0 01-.34.191v1.2z"/></svg><svg viewBox="0 0 22 22" id="close-icon" xmlns="http://www.w3.org/2000/svg"><path d="M1.707.293A1 1 0 00.293 1.707L1.707.293zm-1.414 20a1 1 0 101.414 1.414L.293 20.293zM21.707 1.707A1 1 0 0020.293.293l1.414 1.414zm-1.414 20a1 1 0 001.414-1.414l-1.414 1.414zm1.414-1.414l-.046-.046-.045-.046-.046-.045-.045-.046-.046-.045-.045-.045-.045-.046-.046-.045-.045-.045-.045-.045-.045-.045-.044-.045-.045-.044-.045-.045-.045-.045-.044-.044-.045-.045-.044-.044-.045-.045-.044-.044-.044-.044-.044-.044-.044-.044-.044-.044-.044-.044-.044-.044-.044-.044-.044-.044-.043-.044-.044-.043-.043-.044-.044-.043-.043-.043-.043-.044-.044-.043-.043-.043-.043-.043-.043-.043-.043-.043-.043-.043-.043-.043-.043-.043-.042-.042-.043-.043-.042-.043a8.515 8.515 0 01-.043-.042l-.042-.043-.043-.042-.042-.042a16.81 16.81 0 01-.042-.043l-.043-.042-.042-.042-.042-.042-.042-.042-.042-.042a16.532 16.532 0 01-.083-.084l-.042-.041-.042-.042a16.336 16.336 0 01-.083-.083l-.041-.042-.042-.041-.041-.042-.042-.04-.041-.042-.041-.041-.041-.042-.041-.04-.041-.042-.041-.04-.042-.042-.04-.04-.041-.041-.04-.041-.042-.04-.04-.041-.04-.041-.041-.04-.04-.041a15.407 15.407 0 01-.041-.04l-.04-.04-.041-.041-.04-.04-.04-.04-.04-.04a15.18 15.18 0 01-.08-.081l-.04-.04-.04-.04-.04-.04-.04-.04-.04-.04-.04-.04a14.878 14.878 0 01-.04-.04l-.04-.039-.04-.04-.039-.039-.04-.04-.039-.039-.04-.04-.039-.039-.039-.04-.04-.038-.038-.04-.04-.039a14.432 14.432 0 01-.078-.078l-.039-.04-.039-.038-.039-.04-.039-.038-.039-.039-.039-.039-.038-.038a14.175 14.175 0 01-.039-.04l-.039-.038-.038-.039a14.066 14.066 0 01-.039-.038l-.039-.039-.038-.038a13.957 13.957 0 01-.038-.039l-.039-.038-.038-.039-.039-.038a13.848 13.848 0 01-.038-.038l-.038-.039a13.812 13.812 0 01-.077-.076l-.038-.038a384955088895.27 384955088895.27 0 01-.19-.19l-.038-.038-.038-.038-.038-.038-.038-.038-.038-.038-.037-.038-.038-.037-.038-.038-.037-.038-.038-.037-.038-.038-.037-.037-.038-.038a13.205 13.205 0 00-.037-.037l-.038-.038-.037-.037-.037-.038-.038-.037a13.135 13.135 0 01-.037-.037l-.037-.038-.038-.037-.037-.037-.037-.037-.037-.037a734661613971.518 734661613971.518 0 01-.111-.112l-.038-.037-.037-.037-.037-.037-.037-.037-.037-.037-.036-.037-.037-.037-.037-.036-.037-.037-.037-.037-.037-.037-.036-.037-.037-.036-.037-.037-.037-.037-.036-.036-.037-.037-.036-.037-.037-.036-.037-.037-.036-.036-.037-.037-.036-.036-.037-.037-.036-.036-.036-.037-.037-.036-.036-.036-.037-.037-.036-.036-.036-.037-.037-.036-.036-.036-.036-.036-.036-.037-.037-.036-.036-.036-.036-.036-.036-.037-.036-.036-.037-.036-.036-.036-.036-.036-.036-.036-.036-.036-.036-.036a12.27 12.27 0 01-.036-.036l-.036-.036-.036-.036-.036-.036-.036-.036-.036-.036-.036-.036-.036-.036-.036-.036-.036-.036-.036-.036-.036-.036-.036-.036-.036-.036-.036-.036-.036-.036-.035-.035-.036-.036-.036-.036a12.1 12.1 0 01-.036-.036l-.036-.036-.036-.036-.035-.035-.036-.036-.036-.036-.036-.036-.036-.036-.035-.035-.036-.036-.036-.036-.035-.036a12.067 12.067 0 01-.108-.107l-.036-.036-.035-.035-.036-.036-.036-.036-.036-.036-.035-.035a337975221568.026 337975221568.026 0 01-.072-.072l-.035-.035-.036-.036-.036-.036-.036-.036-.035-.035a337975221568.026 337975221568.026 0 01-.072-.072l-.035-.035-.036-.036-.036-.036-.036-.036-.035-.035a337975221568.026 337975221568.026 0 01-.107-.108l-.036-.035-.036-.036-.036-.036-.035-.035-.036-.036-.036-.036a12.075 12.075 0 01-.035-.036l-.036-.035-.036-.036-.036-.036a120.514 120.514 0 01-.071-.072l-.036-.035a12.082 12.082 0 00-.036-.036l-.036-.036-.036-.036-.035-.035-.036-.036-.036-.036-.036-.036-.036-.036-.036-.036-.035-.036-.036-.035-.036-.036-.036-.036-.036-.036-.036-.036a11.052 11.052 0 01-.036-.036l-.036-.036-.036-.036-.036-.036-.036-.036a122.137 122.137 0 01-.072-.072l-.036-.036-.036-.036-.036-.036-.036-.036-.036-.036-.036-.036-.036-.036-.036-.036-.036-.036a61.604 61.604 0 01-.036-.037l-.037-.036-.036-.036-.036-.036-.036-.036-.036-.037-.037-.036a62.014 62.014 0 00-.036-.036l-.036-.036-.037-.037-.036-.036-.036-.036-.037-.037-.036-.036-.036-.037-.037-.036a62.63 62.63 0 01-.036-.036l-.037-.037-.036-.036-.037-.037a62.94 62.94 0 01-.036-.036l-.037-.037-.036-.037-.037-.036-.037-.037-.036-.037-.037-.036-.037-.037-.036-.037-.037-.036a63.77 63.77 0 01-.074-.074l-.037-.037-.036-.037-.037-.037-.037-.036-.037-.037-.037-.037-.037-.037-.037-.037-.037-.037-.037-.038a64.92 64.92 0 01-.26-.26l-.038-.037-.037-.038-.038-.037-.037-.037-.038-.038-.037-.037-.038-.038-.037-.037-.038-.038-.037-.038-.038-.037-.038-.038-.037-.038-.038-.037a1517111158886.732 1517111158886.732 0 00-.076-.076l-.038-.038-.038-.038-.038-.038a136.016 136.016 0 01-.076-.076l-.038-.038-.038-.038-.038-.038-.038-.038-.038-.038-.038-.039-.039-.038-.038-.038-.038-.039-.039-.038-.038-.038-.039-.039-.038-.038-.039-.04-.038-.038-.04-.038-.038-.039-.039-.039-.038-.039-.04-.038-.038-.04-.039-.038-.039-.04-.039-.038-.039-.04-.04-.038-.038-.04-.04-.039-.039-.039-.039-.04a145.857 145.857 0 00-.157-.157l-.04-.04-.04-.039-.04-.04-.039-.039-.04-.04-.04-.04-.04-.04-.039-.04-.04-.04-.04-.04-.04-.04-.04-.04-.04-.04-.04-.04-.04-.04-.04-.04a76.674 76.674 0 00-.041-.04l-.04-.04-.04-.041-.041-.04-.04-.041-.042-.04-.04-.041-.04-.041-.042-.04a78.549 78.549 0 00-.04-.042l-.041-.04-.041-.041a79.204 79.204 0 00-.041-.041l-.041-.042-.041-.04-.042-.042a80.096 80.096 0 00-.04-.041l-.042-.041-.041-.042-.042-.041-.041-.041-.042-.042-.041-.042a81.697 81.697 0 00-.042-.041l-.042-.042-.041-.042a164.751 164.751 0 01-.126-.125l-.042-.042-.042-.042-.042-.042-.042-.043-.043-.042-.042-.042-.042-.043a84.907 84.907 0 00-.043-.042l-.042-.043-.043-.042a85.71 85.71 0 01-.043-.043l-.042-.042-.043-.043-.043-.043-.043-.043-.043-.043-.043-.043-.043-.043-.043-.043-.043-.043-.044-.044-.043-.043-.043-.044-.044-.043-.043-.044-.044-.043-.044-.044-.044-.044-.044-.044-.043-.044-.044-.044-.045-.044-.044-.044-.044-.044-.044-.044-.045-.045-.044-.044-.045-.045-.044-.044L2.34.926 2.296.881 2.25.837 2.206.792 2.16.747 2.116.702 2.07.657 2.026.61 1.98.566 1.935.521 1.89.475 1.844.43 1.798.384 1.753.34 1.707.293.293 1.707l.046.046.045.045.046.046.045.046.046.045.045.045.045.046.046.045.045.045.045.045.045.045.045.045.044.045.045.044.045.045.044.045.045.044.044.044.045.045.044.044.044.044.044.044.044.045.044.044.044.043.044.044.044.044.044.044.043.043.044.044.043.044.044.043.043.043.044.044.043.043.043.043.043.043.043.043.043.043.043.043.043.043.043.043a171.841 171.841 0 01.085.085l.042.043.043.042.042.043.043.042.042.042.042.043.043.042.042.042.042.042.042.042a1872090452874.885 1872090452874.885 0 01.125.126l.042.041.042.042a81.697 81.697 0 00.083.083l.042.042.041.041.041.042.042.04c.013.015.027.028.041.042l.041.041.041.042.041.04.042.042.04.04.041.042.041.04.041.041.04.041.042.04.04.041.04.041.041.04.04.041.041.04.04.04.041.041.04.04.04.04.04.04.04.041.04.04a151.02 151.02 0 01.08.08l.04.04.04.04.04.04.04.04.04.04.04.039.04.04.039.039.04.04a73.44 73.44 0 01.157.157l.04.04.038.039.04.039.039.039.039.04.039.038a143.383 143.383 0 00.078.078l.039.039.039.039.038.039.04.038.038.04.039.038.038.039.039.038.039.039.038.038.039.039.038.038.038.039.039.038.038.038.038.039.039.038.038.038.038.038.038.038.038.038.038.038a68.107 68.107 0 01.076.076l.038.038.038.038.038.038a67.463 67.463 0 00.076.076l.037.038.038.037.038.038.037.038.038.037.038.038.037.037.038.038.037.037.038.038.037.037.037.038.038.037.037.037a131.084 131.084 0 01.26.26l.038.038.037.037.037.037.037.037.037.037.037.037.036.037.037.037.037.036.037.037a127.696 127.696 0 01.074.074l.036.037.037.036.037.037.036.037.037.036.037.037.036.037.037.036.037.037.036.036.037.037.036.036a125.417 125.417 0 01.073.073l.036.037.037.036.036.036.037.037.036.036.036.037.037.036.036.036.036.036.036.037.037.036.036.036.036.036.036.036.036.037.037.036.036.036.036.036.036.036.036.036.036.036.036.036.036.036.036.036.036.036a61.094 61.094 0 01.072.072l.036.036.036.036.036.036a685161212704.185 685161212704.185 0 01.072.072l.036.036.036.036.036.036.036.036.035.036.036.035.036.036.036.036.036.036.036.036.036.036.035.035.036.036.036.036.036.036.035.036a10.98 10.98 0 01.072.071l.036.036.036.036.035.036.036.035.036.036.036.036.035.035.036.036.036.036.035.036a60.206 60.206 0 00.108.107l.035.035.036.036.036.036.036.036.035.035a337975221568.026 337975221568.026 0 01.072.072l.035.035.036.036.036.036.036.036.035.035a337975221568.026 337975221568.026 0 01.072.072l.035.035.036.036.036.036.036.036.035.036.036.035a12.067 12.067 0 01.107.107l.036.036.036.036.036.036.035.035.036.036.036.036.036.036.036.036.035.035.036.036.036.036.036.036.036.036.036.036.035.035.036.036.036.036.036.036.036.036.036.036.036.036.036.036.036.036.036.036.036.036.036.036.036.036.036.036.036.036a12.27 12.27 0 01.072.072l.036.036.036.036.036.036.036.036.036.036.036.037.037.036.036.036.036.036.036.036.036.037.037.036.036.036a699454945810.007 699454945810.007 0 00.072.073l.037.036.036.036.037.037.036.036.036.037.037.036.036.036.037.037.036.036.037.037.036.037.037.036.036.037.037.036.037.037.036.037.037.036.037.037.036.037.037.036.037.037.037.037.037.037.037.037.036.037.037.037.037.036.037.037.037.037.037.037.037.037a12.96 12.96 0 01.074.075l.038.037.037.037.037.037.037.037.037.038.038.037.037.037.037.038.038.037.037.037.038.038.037.037.038.038.037.037.038.038.037.038.038.037.038.038.037.038.038.037.038.038.038.038.038.038.038.038.038.038a13.596 13.596 0 01.19.19l.038.038a258020269565.416 258020269565.416 0 01.076.077l.039.038.038.038.038.039.039.038.038.038.039.039.038.038.039.04.038.038.04.038.038.039a14.175 14.175 0 01.116.116l.039.04.039.038.039.04.039.038.039.04a14.395 14.395 0 01.078.077l.04.04.039.039.039.04.04.038c.012.014.026.027.039.04l.039.04.04.039.039.04.04.039.04.04.039.039.04.04.04.04.04.04.039.04.04.04a425919084674.666 425919084674.666 0 00.16.16l.04.04.04.04.04.04.041.04.04.04.04.041.041.04.04.041.041.04.041.041.04.041.042.04.04.042.041.04.041.041.041.041.041.041.041.042.042.04.04.042.042.041.041.042.042.041.041.042.042.041a16.296 16.296 0 01.083.083l.042.042.041.042.042.042.042.041.042.042.042.042.042.042.042.043.042.042a16.81 16.81 0 01.127.127l.043.042.042.043.043.042.043.043.042.043.043.042.043.043.043.043.043.043.043.043.043.043.043.043.043.044.044.043.043.043.043.044.044.043.043.044.044.043.044.044.044.044.043.044.044.044.044.044.044.044.045.044.044.044.044.044.045.045.044.044.044.045.045.044.045.045.044.045.045.044.045.045.045.045.045.045.045.046.045.045.046.045.045.045.045.046.046.045.046.046.045.045.046.046 1.414-1.414zm-20 1.414l10-10-1.414-1.414-10 10 1.414 1.414zm10-10l10-10L20.293.293l-10 10 1.414 1.414z"/></svg><svg viewBox="0 0 40 40" id="favorites-icon" xmlns="http://www.w3.org/2000/svg"><path d="M16.225 12C13.339 12 11 14.439 11 17.448c0 5.447 6.175 10.4 9.5 11.552 3.325-1.152 9.5-6.105 9.5-11.552C30 14.439 27.66 12 24.775 12c-1.767 0-3.33.915-4.275 2.315-.946-1.4-2.508-2.315-4.275-2.315z"/></svg></svg>