<svg fill="none" viewBox="0 0 24 24" width="24" height="24"><path class="fsb-top" stroke="#212c56" stroke-width="1.2" d="M 9.4 20 C 9.4 20.7732 8.7732 21.4 8 21.4 C 7.2268 21.4 6.6 20.7732 6.6 20 C 6.6 19.2268 7.2268 18.6 8 18.6 C 8.7732 18.6 9.4 19.2268 9.4 20 Z M 19.4 20 C 19.4 20.7732 18.7732 21.4 18 21.4 C 17.2268 21.4 16.6 20.7732 16.6 20 C 16.6 19.2268 17.2268 18.6 18 18.6 C 18.7732 18.6 19.4 19.2268 19.4 20 Z"></path><path class="fsb-bottom" fill="#2 12c56" d="M 2 2.4 C 1.66863 2.4 1.4 2.66863 1.4 3 C 1.4 3.33137 1.66863 3.6 2 3.6 V 2.4 Z M 4.5 3 L 5.03666 2.73167 L 4.87082 2.4 H 4.5 V 3 Z M 9 11.5 L 8.57574 11.9243 L 8.75147 12.1 H 9 V 11.5 Z M 20 16.6 C 20.3314 16.6 20.6 16.3314 20.6 16 C 20.6 15.6686 20.3314 15.4 20 15.4 V 16.6 Z M 20.9062 5.15241 L 21.4172 5.46687 L 20.9062 5.15241 Z M 17.2929 11.0241 L 16.7819 10.7096 L 17.2929 11.0241 Z M 2 3.6 H 4.5 V 2.4 H 2 V 3.6 Z M 9 12.1 H 16.4412 V 10.9 H 9 V 12.1 Z M 17.8039 11.3386 L 21.4172 5.46687 L 20.3952 4.83795 L 16.7819 10.7096 L 17.8039 11.3386 Z M 3.96334 3.26833 L 4.96334 5.26833 L 6.03666 4.73167 L 5.03666 2.73167 L 3.96334 3.26833 Z M 20.821 4.4 H 5.5 V 5.6 H 20.821 V 4.4 Z M 7.61803 16.6 H 20 V 15.4 H 7.61803 V 16.6 Z M 4.96334 5.26833 L 7.96334 11.2683 L 9.03666 10.7317 L 6.03666 4.73167 L 4.96334 5.26833 Z M 8.07574 11.4243 L 8.57574 11.9243 L 9.42426 11.0757 L 8.92426 10.5757 L 8.07574 11.4243 Z M 7.26026 14.8211 L 9.03666 11.2683 L 7.96334 10.7317 L 6.18695 14.2845 L 7.26026 14.8211 Z M 7.61803 15.4 C 7.32068 15.4 7.12728 15.0871 7.26026 14.8211 L 6.18695 14.2845 C 5.65503 15.3483 6.42862 16.6 7.61803 16.6 V 15.4 Z M 21.4172 5.46687 C 21.7042 5.00048 21.3687 4.4 20.821 4.4 V 5.6 C 20.4299 5.6 20.1902 5.17109 20.3952 4.83795 L 21.4172 5.46687 Z M 16.4412 12.1 C 16.9968 12.1 17.5127 11.8118 17.8039 11.3386 L 16.7819 10.7096 C 16.7091 10.8279 16.5801 10.9 16.4412 10.9 V 12.1 Z"></path></svg>