<svg width="24" height="24" viewBox="0 0 24 24" fill="none" xmlns="http://www.w3.org/2000/svg">
<path fill-rule="evenodd" clip-rule="evenodd" d="M3.39348 3.39348C3.784 3.00295 4.41717 3.00295 4.80769 3.39348L20.6067 19.1925C20.9972 19.583 20.9972 20.2162 20.6067 20.6067C20.2162 20.9972 19.583 20.9972 19.1925 20.6067L3.39348 4.80769C3.00295 4.41717 3.00295 3.784 3.39348 3.39348Z" fill="#333333"/>
<path fill-rule="evenodd" clip-rule="evenodd" d="M3.39348 20.6067C3.00295 20.2162 3.00295 19.583 3.39348 19.1925L19.1925 3.39348C19.583 3.00296 20.2162 3.00295 20.6067 3.39348C20.9972 3.784 20.9972 4.41717 20.6067 4.80769L4.80769 20.6067C4.41717 20.9972 3.784 20.9972 3.39348 20.6067Z" fill="#333333"/>
</svg>
