<svg width="31" height="19" viewBox="0 0 31 19" fill="none" xmlns="http://www.w3.org/2000/svg">
<path d="M19.2053 2.50049H11.2402V16.3997H19.2053V2.50049Z" fill="#FF5A00"/>
<path d="M11.795 9.45019C11.795 6.6021 13.1742 4.07432 15.2905 2.44107C13.733 1.25221 11.7682 0.533691 9.62512 0.533691C4.54827 0.533691 0.44043 4.52159 0.44043 9.45019C0.44043 14.3788 4.54827 18.3667 9.62512 18.3667C11.7682 18.3667 13.733 17.6482 15.2905 16.4593C13.1712 14.8491 11.795 12.2983 11.795 9.45019Z" fill="#EB001B"/>
<path d="M30.1411 9.45019C30.1411 14.3788 26.0332 18.3667 20.9564 18.3667C18.8133 18.3667 16.8485 17.6482 15.291 16.4593C17.4341 14.8232 18.7865 12.2983 18.7865 9.45019C18.7865 6.6021 17.4074 4.07432 15.291 2.44107C16.8456 1.25221 18.8103 0.533691 20.9534 0.533691C26.0332 0.533691 30.1411 4.54756 30.1411 9.45019Z" fill="#F79E1B"/>
</svg>
