<svg width="56" height="17" viewBox="0 0 56 17" fill="none" xmlns="http://www.w3.org/2000/svg">
<path fill-rule="evenodd" clip-rule="evenodd" d="M8.83426 2.10719C9.26941 2.10465 10.5627 1.99102 11.1105 3.79473C11.4795 5.00973 12.0672 6.99995 12.8738 9.76541H13.2023C14.0673 6.84987 14.6615 4.85965 14.985 3.79473C15.5385 1.97223 16.9222 2.10723 17.4757 2.10723L21.7461 2.10723V15.0672H17.3936V7.42968H17.1017L14.6754 15.0672H11.4007L8.97444 7.42402H8.68257V15.0672H4.33008V2.10723L8.83426 2.10719ZM27.9962 2.10723V9.75044H28.3434L31.2948 3.46549C31.8677 2.21476 33.0887 2.10723 33.0887 2.10723H37.3006V15.0672H32.8573V7.42402H32.51L29.6165 13.709C29.0436 14.954 27.7647 15.0672 27.7647 15.0672H23.5528V2.10723H27.9962ZM52.659 8.26591C52.0392 9.97945 50.0928 11.2066 47.9378 11.2066H43.278V15.0672H39.0526V8.26591H52.659Z" fill="#0F754E"/>
<path fill-rule="evenodd" clip-rule="evenodd" d="M48.1416 2.10742H38.8311C39.0526 4.99276 41.5995 7.46279 44.2361 7.46279H52.9526C53.4556 5.06474 51.724 2.10742 48.1416 2.10742Z" fill="url(#paint0_linear_55_559)"/>
<defs>
<linearGradient id="paint0_linear_55_559" x1="53.0381" y1="5.47618" x2="38.8311" y2="5.47618" gradientUnits="userSpaceOnUse">
<stop stop-color="#1F5CD7"/>
<stop offset="1" stop-color="#02AEFF"/>
</linearGradient>
</defs>
</svg>
