<svg width="25" height="24" viewBox="0 0 25 24" fill="none" xmlns="http://www.w3.org/2000/svg">
<g clip-path="url(#clip0_55_569)">
<path d="M12.3906 24C19.018 24 24.3906 18.6274 24.3906 12C24.3906 5.37258 19.018 0 12.3906 0C5.76321 0 0.390625 5.37258 0.390625 12C0.390625 18.6274 5.76321 24 12.3906 24Z" fill="url(#paint0_linear_55_569)"/>
<path fill-rule="evenodd" clip-rule="evenodd" d="M5.82265 11.8734L12.8208 8.85904C16.1534 7.47292 16.8458 7.23215 17.2971 7.22421C17.3964 7.22245 17.6184 7.24705 17.7621 7.36372C17.8836 7.46221 17.9169 7.59532 17.933 7.68868C17.949 7.78204 17.9688 7.99485 17.953 8.16109C17.7724 10.0585 16.991 14.6633 16.5935 16.7885C16.4252 17.6878 16.0943 17.9893 15.7734 18.0188C15.0765 18.0829 14.5473 17.5582 13.8724 17.1158L11.1944 15.3169C10.0096 14.5362 10.7776 14.1071 11.4529 13.4058C11.6295 13.2222 14.6999 10.4295 14.7593 10.1761C14.7665 10.1444 14.7737 10.0264 14.7035 9.96395C14.6334 9.90155 14.5297 9.92315 14.455 9.93988C14.3491 9.96393 12.6619 11.0791 9.39339 13.2855C8.91447 13.6144 8.48067 13.7746 8.09204 13.7662C7.66357 13.7569 6.83938 13.5239 6.22669 13.3248C5.47517 13.0805 4.87789 12.9513 4.92992 12.5365C4.95699 12.3204 5.25457 12.0994 5.82262 11.8735L5.82265 11.8734Z" fill="white"/>
</g>
<defs>
<linearGradient id="paint0_linear_55_569" x1="12.3906" y1="0" x2="12.3906" y2="23.822" gradientUnits="userSpaceOnUse">
<stop stop-color="#2AABEE"/>
<stop offset="1" stop-color="#229ED9"/>
</linearGradient>
<clipPath id="clip0_55_569">
<rect width="24" height="24" fill="white" transform="translate(0.390625)"/>
</clipPath>
</defs>
</svg>
