<svg width="40" height="19" viewBox="0 0 40 19" fill="none" xmlns="http://www.w3.org/2000/svg">
<g clip-path="url(#clip0_55_537)">
<path d="M16.6102 15.7414H13.5781L15.4746 4.18848H18.5065L16.6102 15.7414Z" fill="#173AC3"/>
<path d="M27.6012 4.47086C27.0032 4.2371 26.0546 3.979 24.8817 3.979C21.8874 3.979 19.7789 5.55208 19.766 7.80111C19.7411 9.46044 21.2756 10.3821 22.4233 10.9353C23.5964 11.5007 23.9952 11.8697 23.9952 12.3737C23.9832 13.1476 23.0472 13.5044 22.1743 13.5044C20.9637 13.5044 20.3151 13.3204 19.3294 12.8899L18.9302 12.7053L18.5059 15.2986C19.217 15.6178 20.5272 15.9011 21.8874 15.9135C25.0689 15.9135 27.1401 14.3648 27.1647 11.9681C27.1768 10.6529 26.3665 9.64519 24.6196 8.82173C23.5591 8.29313 22.9096 7.93669 22.9096 7.39584C22.9221 6.90415 23.4589 6.40053 24.656 6.40053C25.6418 6.37587 26.366 6.6093 26.9146 6.84289L27.1889 6.96557L27.6012 4.47086Z" fill="#173AC3"/>
<path d="M31.6315 11.6486C31.8812 10.9849 32.8421 8.41619 32.8421 8.41619C32.8295 8.44085 33.0913 7.74024 33.241 7.31013L33.4529 8.3056C33.4529 8.3056 34.0271 11.071 34.1518 11.6486C33.6779 11.6486 32.2304 11.6486 31.6315 11.6486ZM35.3742 4.18848H33.0289C32.3057 4.18848 31.7562 4.39724 31.4442 5.14703L26.9404 15.7412H30.1219C30.1219 15.7412 30.6457 14.3153 30.7582 14.0082C31.1073 14.0082 34.2022 14.0082 34.6512 14.0082C34.7382 14.4138 35.0129 15.7412 35.0129 15.7412H37.8203L35.3742 4.18848Z" fill="#173AC3"/>
<path d="M11.0455 4.18848L8.07609 12.0664L7.75161 10.4687C7.20263 8.62511 5.48092 6.62209 3.55957 5.62614L6.27943 15.7291H9.48576L14.2517 4.18848H11.0455Z" fill="#173AC3"/>
<path d="M5.31884 4.18848H0.440532L0.390625 4.42191C4.19601 5.38062 6.71624 7.69156 7.75169 10.4692L6.6912 5.1596C6.51661 4.42174 5.98007 4.21282 5.31884 4.18848Z" fill="#173AC3"/>
</g>
<defs>
<clipPath id="clip0_55_537">
<rect width="37.4297" height="11.9345" fill="white" transform="translate(0.390625 3.979)"/>
</clipPath>
</defs>
</svg>
